<mxfile host="app.diagrams.net" modified="2024-03-31T14:19:34.570Z" agent="Mozilla/5.0 (Macintosh; Intel Mac OS X 10_15_7) AppleWebKit/605.1.15 (KHTML, like Gecko) Version/17.3.1 Safari/605.1.15" version="24.2.1" etag="dlhIVqAOwirY-ArXrgVn" type="github">
  <diagram name="Page-1" id="u8F1gpcLrRpUZLnZNDkL">
    <mxGraphModel>
      <root>
        <mxCell id="0" />
        <mxCell id="1" parent="0" />
      </root>
    </mxGraphModel>
  </diagram>
</mxfile>
